<?xml version="1.0" encoding="UTF-8"?>
<svg id="Layer_2" xmlns="http://www.w3.org/2000/svg" viewBox="0 0 2245 421.73">
  <defs>
    <style>
      .cls-1 {
        fill: #e74c38;
      }

      .cls-2 {
        fill: #17306a;
      }
    </style>
  </defs>
  <g id="Layer_1-2" data-name="Layer_1">
    <g>
      <rect class="cls-1" x="917.18" y="5.02" width="45.69" height="52.99"/>
      <path d="M519.39,162.18v-46.27l43.34-23.13v28.54c3.5-4.62,10.03-9.87,18.49-15.45,24.08-15.88,59.26-17.46,83.16-.97,10.42,7.19,20.08,16.12,23.55,30.09,5.23,21.01,1.71,48,1.45,70.87-.35,30.19,0,72.18,0,72.18h-44.93s-.12-68.99,0-93.27c.16-31.73-7.22-39.62-10.55-42.75-10-9.4-23.95-9.14-25.85-9.17-19.59-.26-33.53,15.56-35.76,19.03-8.48,13.18-6.2,34.23-6.77,54.07-1.04,36.25,0,72.09,0,72.1h-46.13v-115.85Z"/>
      <rect x="445.67" y="3.72" width="47.63" height="274.31"/>
      <rect x="916.8" y="88.27" width="46.45" height="188.54"/>
      <rect class="cls-2" x="1893.19" y="89.51" width="38.78" height="186.74"/>
      <rect class="cls-1" x="1893.71" y="25.01" width="37.74" height="43.5"/>
      <path d="M848.85,18.39c.01,30.31-.01,60.63,0,90.94-2.55-2.13-36.03-30.6-78.19-17.38-35.48,11.12-49.59,43.51-52.58,50.38-8.27,18.99-7.83,35.71-7.43,46.32.61,16.09,1.72,45.61,24.72,68.93,5.33,5.4,28.14,27,62.3,24.94,26.35-1.59,43.77-16.33,49.1-21.21h2.97l3.6,16.73h39.09V3.72l-43.59,14.66ZM848.85,220.11c-.08.09-.2.23-.35.39-5.61,6.29-19.69,22.05-39.66,24.41-18.56,2.19-33.01-8.28-35.07-9.83-22.15-16.57-21.1-45.27-20.94-49.69.71-19.44,10.94-51.7,39.54-58.46,20.19-4.77,42.62,4.8,56.48,23.81v69.36Z"/>
      <path d="M1142.6,85.8v26.81c-6.16-6.59-20.22-19.44-41.54-25.25-32.74-8.91-67.67,3.09-89.34,25.8-18.49,19.38-22.62,41.63-24.1,50.3-1.61,9.37-8.43,56.93,26.86,90.06,3.76,3.53,33.29,29.58,75.43,24.15,31.67-4.08,44.78-21.79,50.49-27.81h2.2v23.78h40.75V85.8h-40.75ZM1140.37,182.34c-.1,7.89-.32,25.75-13.93,40.31-13.76,14.71-31.88,16.09-37.14,16.41-5.22.32-22.28,1.1-37.3-10.64-18.51-14.48-19.87-36.81-20.29-43.67-.37-6-1.87-30.93,17.19-48.83,2.7-2.54,17.57-15.96,39.94-14.82,3.15.16,19.63,1.28,33.65,14.14,18.26,16.74,17.97,40.19,17.88,47.11Z"/>
      <path class="cls-2" d="M1446.26,101.99c-4.13-4.6-30.4-32.9-72.67-32.74-38.73.15-63.16,24.02-67.59,28.5-25.05,25.35-27.2,56.01-27.68,64.83-.46,8.45-1.68,40.05,21.09,68.31,3.43,4.26,30.51,36.69,75.99,36.11,41.94-.54,67.35-28.74,71.29-33.26l31.52,23.92c-7.22,9.13-19.25,21.94-37.3,32.17-57.69,32.66-119.48,6.27-122.76,4.81-48-21.43-83.03-70.99-82.53-127.75.45-51.74,30.31-97.32,72.56-120.32,49.32-26.86,97.89-13.36,105.6-11.09,34.27,10.12,55.49,30.97,64.43,40.92-10.65,8.53-21.3,17.06-31.95,25.58Z"/>
      <path class="cls-2" d="M1714.88,112.87c-.83-.06-1.66-.11-2.49-.17-.04-10.7-.08-21.41-.11-32.11l-36.57,18.43v173.21h38.36s.01-20.77,0-45.01c0-19.22.06-30.97.36-42.32.37-14.26.13-17.73.89-23.58,1.55-11.97,4.79-17.53,7.18-21.02,3.07-4.47,6.33-7.17,8.92-9.31,3.27-2.71,9.58-7.82,19.26-10.55,10.28-2.9,19.13-1.63,23.87-.57,2-12.01,4-24.01,6-36.02-5.13-1.18-19.89-3.87-36.51,3.07-18.03,7.52-26.66,21.54-29.14,25.96Z"/>
      <polygon class="cls-2" points="1879.64 88.29 1842.82 88.4 1842.82 26.47 1782.07 118.78 1802.98 118.78 1804.27 273.06 1842.82 273.06 1842.82 118.78 1869.59 118.78 1879.64 88.29"/>
      <path class="cls-2" d="M2203.81,86.26c-7.49,17.27-13.79,32.07-18.65,43.6-22.99,54.54-17.01,43.29-25.13,61.48-1.38,3.08-4.08,9.08-6.7,17.52-3.43,11.05-4.92,20.53-5.65,26.99h-2.32c-.87-5.78-2.52-14.75-5.75-25.43-2.98-9.85-5.63-15.61-10.15-27.15-5.28-13.47-7.03-19.29-11.69-32.32-5.01-14.01-12.83-34.82-24.93-63.73h-67.83c-.22-4.26.03-11.82,0-20.01-.05-15.23,2.45-23.73,8.55-28.57,9.22-7.32,25.75-1.77,28.34-.74,3.07-9.77,4.99-19.26,8.06-29.03-5.67-2.66-20.68-8.76-39.52-5.35-6.73,1.22-20.35,3.69-30.26,14.61-11.89,13.11-12.45,31.78-13.2,57.27-.15,5.02-.08,9.14,0,11.82-5.99-.15-11.96.15-17.95,0l-6.45,32.04h24.48v153.33h38.19V119.27h29.65l2.89-12.45h1.46l65.6,163.19-29.27,68.43h43.72l105.67-252.19h-41.19Z"/>
      <path class="cls-2" d="M1622.75,95.5c-15.57-13.25-32.49-17.66-38.29-19.11-7.62-1.9-39.57-8.9-71.61,8.76-47.29,26.06-51.09,81.27-51.34,86.2-1.41,27.75,9.04,47.98,11.32,52.22,13.14,24.45,33.54,36.85,45.39,42.41,37.36,17.51,72.28,5.63,79.95,2.8,20.15-7.45,33.37-19.48,40.17-26.63-8.44-7.03-16.88-14.06-25.32-21.1-3.51,3.36-22.6,20.95-51.24,19.66-4.71-.21-33.55-2-50.2-25.68-6.6-9.38-8.93-18.84-9.86-24.7h153.44c.69-6.37,5.87-62.27-32.41-94.83ZM1564.29,108.09c7.34.42,25.32,2.85,38.97,18.11,11.39,12.73,13.28,28.41,13.7,33.47h-116.6c1.19-5.33,5.95-24.8,23.35-38.28,4.38-3.4,19.19-14.51,40.58-13.3Z"/>
      <g>
        <path d="M503.64,310.24l-2.73,12.89h-2.22c-1.19-2.71-3.09-4.86-5.72-6.45-2.63-1.59-5.32-2.38-8.07-2.38-7.16,0-13.63,3.88-19.41,11.66-5.78,7.77-8.67,17.59-8.67,29.45,0,8.3,1.87,14.84,5.62,19.63,3.75,4.79,8.5,7.18,14.25,7.18,8.04,0,14.85-4.55,20.44-13.66l1.81,2.12c-6.86,10.74-15.4,16.11-25.6,16.11-7.58,0-13.84-2.9-18.77-8.71-4.93-5.8-7.4-13.23-7.4-22.3,0-11.31,3.89-21.53,11.66-30.66,7.77-9.13,16.42-13.69,25.95-13.69,2.2,0,4.76.35,7.69,1.05,2.92.7,4.62,1.05,5.08,1.05,1.19,0,2.48-1.1,3.88-3.3h2.22Z"/>
        <path d="M514.06,366.08c-.13,1.1-.19,2.14-.19,3.11,0,7.62,3.49,11.43,10.48,11.43,5.08,0,9.93-3.07,14.55-9.21l1.33,1.75c-3.09,4.73-6.09,8.17-8.99,10.3-2.9,2.13-6.45,3.2-10.64,3.2-4.49,0-7.95-1.26-10.39-3.78-2.44-2.52-3.65-6.09-3.65-10.71,0-7.88,2.78-15.05,8.35-21.5,5.57-6.46,11.7-9.69,18.39-9.69,2.63,0,4.7.67,6.23,2,1.52,1.34,2.29,3.13,2.29,5.37,0,3.77-2.48,7.33-7.43,10.7-4.96,3.37-11.73,5.71-20.33,7.02ZM514.63,363.72c13-2.41,19.5-6.75,19.5-13.02,0-1.27-.56-2.43-1.68-3.49-1.12-1.06-2.38-1.59-3.78-1.59-3.18,0-6.16,1.87-8.96,5.62-2.8,3.75-4.49,7.91-5.08,12.48Z"/>
        <path d="M565.06,341.62l-3.51,16.39.25.25c4.16-11.52,8.76-17.28,13.81-17.28,1.91,0,3.65,1.21,5.22,3.63l-4.48,7.94c-2.5-2.58-4.2-3.87-5.09-3.87-1.57,0-3.61,2.56-6.14,7.68-2.52,5.12-4.25,9.8-5.18,14.03l-1.4,6.61c-.17.72-.25,1.4-.25,2.04,0,2.63,1.67,3.95,5.01,3.95h1.84l-.38,2.22h-21.03l.38-2.22c2.54,0,4.21-.46,5.02-1.37.8-.91,1.61-3.27,2.41-7.08l4.32-19.89c.34-1.61.51-2.94.51-4.01,0-2.62-1.04-3.94-3.11-3.94-.47,0-1.91.17-4.32.51l.51-2.6,13.01-2.99h2.6Z"/>
        <path d="M615.76,342.38l-.64,3.55h-11.95l-6.31,29.72c-.17.81-.25,1.51-.25,2.1,0,2.46,1.08,3.69,3.24,3.69,3.52,0,8.04-2.31,13.55-6.92l1.59,1.62c-7.79,7.01-14.57,10.51-20.33,10.51-3.98,0-5.97-1.82-5.97-5.46,0-1.53.47-4.53,1.4-9.02l5.65-26.24h-7.81l.38-2.22c6.85-.67,12.1-4.89,15.73-12.64h2.29l-2.4,11.31h11.83Z"/>
        <path d="M642.69,341.24l-7.05,33.28c-.47,2.33-.7,3.98-.7,4.96,0,1.36.4,2.28,1.21,2.76.8.49,2.8.73,5.98.73l-.38,2.22h-22.87l.51-2.22c3.13,0,5.12-.29,5.97-.86.85-.57,1.63-2.49,2.35-5.75l5.08-23.57c.25-1.28.38-2.29.38-3.02,0-2.18-1.21-3.27-3.62-3.27l-5.08.63.51-2.6,15.1-3.3h2.61ZM638.76,323c1.14,0,2.12.4,2.92,1.21.8.8,1.21,1.8,1.21,2.99s-.4,2.14-1.21,2.99c-.81.85-1.78,1.27-2.92,1.27s-2.2-.42-3.05-1.27c-.85-.84-1.27-1.84-1.27-2.99s.42-2.18,1.27-2.99c.85-.8,1.86-1.21,3.05-1.21Z"/>
        <path d="M679.99,342.38l-.45,3.55h-9.04l-7.25,37.99c-1.91,10.25-4.02,17.7-6.33,22.36-2.31,4.66-5.55,8.27-9.73,10.83-4.17,2.56-8.66,3.84-13.45,3.84-6.4,0-11.44-1.16-15.13-3.49l1.97-9.09h2.22c1.4,6.65,5.18,9.97,11.35,9.97,4.65,0,8.74-1.68,12.27-5.05,3.53-3.37,6.44-11.17,8.72-23.41l8.25-43.96h-9.14l.38-3.55h9.17l3.22-15.76c1.7-8.39,4.47-14.17,8.31-17.35,3.84-3.17,8.41-4.76,13.72-4.76,2.46,0,5.41.57,8.85,1.71l.38-1.58h2.6l-2.48,11.75h-2.6c-.55-6.18-3.29-9.27-8.21-9.27-6.28,0-10.52,5.3-12.72,15.89l-4.09,19.37h9.2Z"/>
        <path d="M729.48,342.38l-.51,2.22c-2.08.17-3.63.76-4.67,1.78-1.04,1.01-2.34,2.94-3.91,5.78l-24.56,44.48c-3.31,5.97-6.28,10.46-8.93,13.49-2.65,3.03-6,5.71-10.05,8.07-4.05,2.35-8.15,3.52-12.3,3.52-.3,0-1.38-.12-3.24-.38l2.48-6.99c7.03,0,13.1-2.04,18.2-6.1,5.1-4.07,9.79-10.14,14.07-18.23l-2.99-36.59c-.34-4.02-.84-6.5-1.49-7.43-.66-.93-1.94-1.4-3.84-1.4l.51-2.22h19.18l-.51,2.22c-2.68,0-4.51.32-5.48.95-.98.63-1.47,1.95-1.47,3.94,0,.59.04,1.44.13,2.54l2.2,27.04.24.08,14.09-25.72c1.61-2.96,2.41-4.99,2.41-6.09,0-1.82-1.33-2.73-3.99-2.73l.51-2.22h13.91Z"/>
        <path d="M752.73,341.24l-7.05,33.28c-.47,2.33-.7,3.98-.7,4.96,0,1.36.4,2.28,1.21,2.76.8.49,2.8.73,5.98.73l-.38,2.22h-22.87l.51-2.22c3.13,0,5.12-.29,5.97-.86.85-.57,1.63-2.49,2.35-5.75l5.08-23.57c.25-1.28.38-2.29.38-3.02,0-2.18-1.21-3.27-3.62-3.27l-5.08.63.51-2.6,15.1-3.3h2.61ZM748.79,323c1.14,0,2.12.4,2.92,1.21.8.8,1.21,1.8,1.21,2.99s-.4,2.14-1.21,2.99c-.81.85-1.78,1.27-2.92,1.27s-2.2-.42-3.05-1.27c-.85-.84-1.27-1.84-1.27-2.99s.42-2.18,1.27-2.99c.85-.8,1.86-1.21,3.05-1.21Z"/>
        <path d="M781.21,341.11l-1.66,7.56.26.25c2.83-2.75,5.3-4.76,7.39-6.04,2.09-1.27,4.51-1.91,7.26-1.91,3.64,0,6.58,1.06,8.84,3.18,2.26,2.11,3.39,5.08,3.39,8.89,0,1.48-.17,3.05-.51,4.7l-4.19,20.01c-.21.93-.32,1.7-.32,2.29,0,1.14.44,1.92,1.31,2.32.87.4,2.58.6,5.14.6l-.38,2.22h-21.22l.38-2.22c2.8-.17,4.66-.66,5.59-1.46.93-.8,1.67-2.56,2.22-5.27l4.45-20.71c.17-.76.25-1.5.25-2.22,0-2.12-.68-3.83-2.03-5.14-1.36-1.31-3.11-1.97-5.28-1.97-3.9,0-8.37,2.65-13.4,7.94l-4.4,21.15c-.42,1.95-.64,3.35-.64,4.19,0,1.36.45,2.28,1.34,2.76.89.49,2.49.73,4.78.73l-.38,2.22h-18.87l.38-2.22c2.88-.29,4.74-2.46,5.59-6.48l5.08-23.82c.13-.76.19-1.44.19-2.04,0-2.62-1.06-3.94-3.18-3.94-1.36,0-3.01.25-4.96.76l.64-2.86,14.31-3.5h2.61Z"/>
        <path d="M860.08,340.98l-13.49,67.52c-1.61,8.31-8.32,12.46-20.12,12.46-5.63,0-10.07-1.28-13.33-3.84-3.26-2.56-4.89-5.84-4.89-9.81,0-7.54,6.78-14.53,20.33-20.97-6.52-2.46-9.78-7.35-9.78-14.68,0-8.17,3.69-15.33,11.07-21.47,7.38-6.14,17.45-9.22,30.22-9.22ZM838.75,410.29l6.01-28.46-.29-.26c-2.63,2.29-6.64,4.35-12.04,6.19-5.4,1.84-9.6,4.32-12.61,7.43-3.01,3.11-4.51,6.28-4.51,9.5,0,3.55,1.4,6.66,4.19,9.3,2.8,2.65,6.04,3.97,9.72,3.97,2.75,0,4.86-.52,6.32-1.55,1.46-1.04,2.53-3.08,3.21-6.13ZM845.7,377.41l6.58-31.15c-1.27-.04-2.2-.06-2.8-.06-6.52,0-11.9,2.03-16.14,6.09-4.57,4.36-6.86,10.04-6.86,17.06,0,4.02.91,7.17,2.73,9.45,1.82,2.28,4.3,3.43,7.43,3.43,2.2,0,4.22-.7,6.07-2.09,1.84-1.4,2.83-2.29,2.98-2.71Z"/>
        <path d="M943.7,311.32l-2.99,14.04h-2.35c.38-3.47-.54-6.18-2.76-8.13-2.22-1.95-4.9-2.92-8.04-2.92-3.56,0-6.55,1.29-8.99,3.87-2.44,2.58-3.65,5.36-3.65,8.32s.66,5.74,1.97,8.45c1.32,2.71,4.43,6.92,9.34,12.61,4.91,5.7,8.07,9.76,9.49,12.17,1.42,2.42,2.13,5.48,2.13,9.22,0,5.12-2.01,9.38-6.04,12.76-4.02,3.39-9.13,5.09-15.31,5.09-2.92,0-5.84-.43-8.77-1.3-2.92-.87-4.68-1.3-5.27-1.3-1.4,0-2.39.95-2.99,2.86h-2.6l2.99-13.91h2.48c1.14,3.35,3.14,5.98,6,7.91,2.86,1.92,6.07,2.89,9.62,2.89,3.22,0,5.97-1.2,8.26-3.62,2.29-2.41,3.43-5.33,3.43-8.76,0-4.41-2.92-9.81-8.74-16.24-5.82-6.42-9.44-11.09-10.86-14.01-1.42-2.92-2.13-5.99-2.13-9.21,0-5.63,2.01-10.48,6.04-14.55,4.02-4.07,8.81-6.1,14.36-6.1,2.75,0,5.2.38,7.34,1.11,2.14.74,3.48,1.11,4.03,1.11.47,0,1.02-.78,1.65-2.35h2.35Z"/>
        <path d="M995.65,340.98l-6.58,31.32c-.42,1.88-.64,3.71-.64,5.5,0,3.03,1.82,4.35,5.45,3.97l-.51,2.22-14.99,2.42,1.77-8.26-.18-.32c-6.57,5.88-12.11,8.83-16.64,8.83-3.01,0-5.45-1.05-7.34-3.14-1.88-2.09-2.83-4.8-2.83-8.1,0-2.2.3-4.7.89-7.5l3.3-15.12c.21-1.14.32-2.1.32-2.86,0-2.16-1.42-3.24-4.26-3.24-.59,0-1.25.04-1.97.13l.45-2.22,12.89-3.63h2.62l-6.01,28.6c-.51,2.75-.76,4.49-.76,5.2,0,1.91.63,3.54,1.9,4.89,1.27,1.36,2.79,2.03,4.57,2.03,2.79,0,5.79-1.23,9.01-3.68,3.22-2.45,4.89-3.95,5.04-4.51l4.55-21.22c.13-.67.19-1.29.19-1.84,0-2.58-1.23-3.88-3.68-3.88-.72,0-1.55.09-2.48.26l.38-2.22,12.93-3.63h2.61Z"/>
        <path d="M1037.98,340.73l-1.4,12.45h-1.84c.13-2.61-.56-4.66-2.06-6.15-1.5-1.5-3.55-2.24-6.13-2.24-4.11,0-7.74,2.5-10.9,7.51-3.16,5.01-4.73,10.9-4.73,17.66,0,7.66,3.05,11.48,9.15,11.48,4.45,0,8.87-1.92,13.28-5.78l1.4,1.62c-6.44,6.25-12.6,9.37-18.49,9.37-3.81,0-6.94-1.44-9.37-4.32-2.44-2.88-3.65-6.61-3.65-11.18,0-6.99,2.64-13.77,7.91-20.33,5.27-6.56,10.81-9.85,16.61-9.85,1.91,0,3.42.13,4.54.38,1.12.26,1.81.38,2.06.38.93,0,1.67-.33,2.22-1.01h1.4Z"/>
        <path d="M1077.24,340.73l-1.4,12.45h-1.84c.13-2.61-.56-4.66-2.06-6.15-1.5-1.5-3.55-2.24-6.13-2.24-4.11,0-7.74,2.5-10.9,7.51-3.16,5.01-4.73,10.9-4.73,17.66,0,7.66,3.05,11.48,9.15,11.48,4.45,0,8.87-1.92,13.28-5.78l1.4,1.62c-6.44,6.25-12.6,9.37-18.49,9.37-3.81,0-6.94-1.44-9.37-4.32-2.44-2.88-3.65-6.61-3.65-11.18,0-6.99,2.64-13.77,7.91-20.33,5.27-6.56,10.81-9.85,16.61-9.85,1.91,0,3.42.13,4.54.38,1.12.26,1.81.38,2.06.38.93,0,1.67-.33,2.22-1.01h1.4Z"/>
        <path d="M1089.44,366.08c-.13,1.1-.19,2.14-.19,3.11,0,7.62,3.49,11.43,10.48,11.43,5.08,0,9.93-3.07,14.55-9.21l1.33,1.75c-3.09,4.73-6.09,8.17-8.99,10.3-2.9,2.13-6.45,3.2-10.64,3.2-4.49,0-7.95-1.26-10.39-3.78-2.44-2.52-3.65-6.09-3.65-10.71,0-7.88,2.78-15.05,8.35-21.5,5.57-6.46,11.7-9.69,18.39-9.69,2.63,0,4.7.67,6.23,2,1.52,1.34,2.29,3.13,2.29,5.37,0,3.77-2.48,7.33-7.43,10.7-4.96,3.37-11.73,5.71-20.33,7.02ZM1090.01,363.72c13-2.41,19.5-6.75,19.5-13.02,0-1.27-.56-2.43-1.68-3.49-1.12-1.06-2.38-1.59-3.78-1.59-3.18,0-6.16,1.87-8.96,5.62-2.8,3.75-4.49,7.91-5.08,12.48Z"/>
        <path d="M1150.87,341.62l-2.22,10.42h-2.1c-1.02-5.38-3.75-8.07-8.2-8.07-1.74,0-3.23.55-4.48,1.62-1.25,1.09-1.87,2.37-1.87,3.86-.02,2.5,1.79,5.91,5.45,10.22,3.65,4.31,5.91,7.46,6.78,9.45.87,1.99,1.3,3.84,1.3,5.53,0,3.56-1.5,6.45-4.51,8.68-3.01,2.22-6.92,3.33-11.75,3.33-1.82,0-3.39-.23-4.7-.7l-1.4-.38c-.47,0-1.12.25-1.97.76h-2.22l2.35-11.18h2.35c-.13.59-.19,1.18-.19,1.78,0,1.99.72,3.68,2.16,5.05,1.44,1.38,3.07,2.06,4.89,2.06,2.37,0,4.4-.69,6.1-2.06,1.69-1.37,2.54-3,2.54-4.86,0-2.66-2.13-6.53-6.38-11.59-4.26-5.06-6.38-8.82-6.38-11.27,0-3.68,1.37-6.82,4.1-9.4,2.73-2.58,6.04-3.88,9.94-3.88,1.69,0,3.23.17,4.61.51,1.38.34,2.11.51,2.19.51.38,0,.72-.06,1.02-.19.3-.13.47-.19.51-.19h2.1Z"/>
        <path d="M1183.39,341.62l-2.22,10.42h-2.1c-1.02-5.38-3.75-8.07-8.2-8.07-1.74,0-3.23.55-4.48,1.62-1.25,1.09-1.87,2.37-1.87,3.86-.02,2.5,1.79,5.91,5.45,10.22,3.65,4.31,5.91,7.46,6.78,9.45.87,1.99,1.3,3.84,1.3,5.53,0,3.56-1.5,6.45-4.51,8.68-3.01,2.22-6.92,3.33-11.75,3.33-1.82,0-3.39-.23-4.7-.7l-1.4-.38c-.47,0-1.12.25-1.97.76h-2.22l2.35-11.18h2.35c-.13.59-.19,1.18-.19,1.78,0,1.99.72,3.68,2.16,5.05,1.44,1.38,3.07,2.06,4.89,2.06,2.37,0,4.4-.69,6.1-2.06,1.69-1.37,2.54-3,2.54-4.86,0-2.66-2.13-6.53-6.38-11.59-4.26-5.06-6.38-8.82-6.38-11.27,0-3.68,1.37-6.82,4.1-9.4,2.73-2.58,6.04-3.88,9.94-3.88,1.69,0,3.23.17,4.61.51,1.38.34,2.11.51,2.19.51.38,0,.72-.06,1.02-.19.3-.13.47-.19.51-.19h2.1Z"/>
        <path d="M1182.25,401.4l.51-2.35c7.03-2.04,10.55-6.25,10.55-12.64-3.73-.68-5.59-2.54-5.59-5.59,0-1.61.53-2.94,1.59-4.01,1.06-1.06,2.39-1.58,4-1.58,1.86,0,3.39.75,4.57,2.25,1.18,1.51,1.78,3.44,1.78,5.81,0,4.15-1.59,7.94-4.76,11.37-3.18,3.43-7.39,5.67-12.64,6.73Z"/>
        <path d="M1280.98,340.03l-3.56,16.84h-2.48c-.3-2.54-1-4.35-2.1-5.43-1.1-1.08-3.39-1.62-6.87-1.62h-10.05l-4.85,23.44c-.21,1.06-.32,2.01-.32,2.86,0,3.72,1.97,5.58,5.91,5.58h8.32c5.25,0,9.13-.79,11.65-2.38s5.01-5,7.46-10.26h2.99l-6.1,16.14h-48.15l.51-2.22c2.37-.17,4.19-.76,5.46-1.78,1.27-1.02,2.31-3.46,3.11-7.31l10.8-51.01c.21-1.06.32-1.97.32-2.73,0-3.22-2.22-4.87-6.67-4.96l.38-2.22h42.18l-2.48,11.76h-2.22c0-3.51-.42-5.76-1.27-6.73-.85-.97-2.94-1.46-6.28-1.46h-13.39l-6.41,29.79h14.24c2.07,0,3.6-.49,4.59-1.46.99-.97,1.93-2.58,2.82-4.83h2.48Z"/>
        <path d="M1359.17,355.28l-4.57,22.11c-.17.8-.25,1.5-.25,2.09,0,2.33,1.55,3.5,4.65,3.5l-.38,2.22h-18.61l.44-2.22c2.33-.17,3.94-.79,4.83-1.84.89-1.06,1.69-3.39,2.41-6.99l4.07-19.38c.17-.84.25-1.65.25-2.41,0-4.11-2.23-6.17-6.68-6.17-2.63,0-6.01,2.25-10.13,6.73l-4.94,22.61c-.34,1.53-.51,2.75-.51,3.68,0,2.5,1.79,3.75,5.37,3.75l-.38,2.22h-18.87l.38-2.22c3.39-.25,5.55-2.54,6.48-6.86l4.45-20.84c.21-1.01.32-1.97.32-2.86,0-4.15-1.88-6.23-5.64-6.23-2.49,0-5.02,1.31-7.57,3.91-2.56,2.6-3.93,4.33-4.12,5.19l-4.4,20.27c-.38,1.69-.57,2.96-.57,3.81,0,2.41,2.06,3.61,6.17,3.61l-.38,2.22h-18.8l.38-2.22c2.8-.08,4.79-3.03,5.97-8.83l4.45-21.22c.25-1.16.38-2.12.38-2.89,0-2.31-1.33-3.47-4-3.47-.72,0-1.55.06-2.48.19l.51-2.22,13.21-3.3h2.62l-1.83,7.81.24.25c4.89-5.55,9.5-8.32,13.84-8.32,5.56,0,8.72,2.79,9.47,8.36,2.8-2.85,5.23-4.96,7.28-6.32,2.06-1.36,4.36-2.05,6.9-2.05,3.22,0,5.77.92,7.63,2.76,1.87,1.84,2.8,4.38,2.8,7.59,0,1.23-.13,2.54-.38,3.94Z"/>
        <path d="M1387.37,340.98l-1.19,5.61.25.25c4.18-3.91,8.68-5.86,13.5-5.86,3.59,0,6.65,1.51,9.19,4.52,2.54,3.02,3.8,6.7,3.8,11.07,0,7.68-3.32,14.57-9.97,20.68-6.64,6.11-15.06,9.16-25.25,9.16l-4.25,20.01c-.47,2.33-.7,4.07-.7,5.21,0,2.33,1.1,3.5,3.31,3.5,1.06,0,2.55-.21,4.46-.63l-.64,2.99-14.48,3.49h-2.6l14.23-66.32c.3-1.48.44-2.73.44-3.75,0-2.96-1.42-4.45-4.26-4.45-.8,0-2.01.12-3.62.38l.51-2.22,14.66-3.63h2.6ZM1385.31,350.7l-6.65,31.32c1.23.17,2.76.26,4.58.26,6.44,0,11.72-2.26,15.83-6.78,4.11-4.52,6.17-10.29,6.17-17.34,0-3.73-.91-6.73-2.74-9-1.83-2.27-4.27-3.4-7.32-3.4s-6.43,1.65-9.87,4.95Z"/>
        <path d="M1447.29,340.98c3.47,0,6.52,1.46,9.15,4.39,2.63,2.92,3.94,6.35,3.94,10.29,0,6.9-2.6,13.8-7.81,20.68-5.21,6.89-11.39,10.32-18.55,10.32-3.98,0-7.23-1.42-9.75-4.26-2.52-2.83-3.78-6.45-3.78-10.86,0-7.71,2.78-14.73,8.35-21.06,5.57-6.33,11.72-9.5,18.46-9.5ZM1436.88,382.85c4.19,0,7.89-2.61,11.09-7.83,3.2-5.22,4.8-11.44,4.8-18.68,0-3.26-.85-6-2.54-8.21-1.69-2.22-3.81-3.33-6.35-3.33-4.07,0-7.71,2.6-10.93,7.8-3.22,5.2-4.83,11.31-4.83,18.33,0,3.64.79,6.53,2.38,8.69,1.59,2.16,3.72,3.23,6.38,3.23Z"/>
        <path d="M1521.69,353.84l-19.39,32.57h-1.96l-2.73-30.37h-.25l-20.03,30.37h-2.2l-1.27-34.73c-.09-2.76-.47-4.6-1.14-5.51-.68-.92-2.27-1.44-4.76-1.56l.57-2.22h18.23l-.51,2.22c-2.29.12-3.79.72-4.49,1.78-.7,1.06-.99,3.29-.86,6.68l.74,21.86.23.04,15.63-23.35c-.13-2.87-.57-4.75-1.33-5.66-.76-.9-2.44-1.36-5.02-1.36l.51-2.22h19.18l-.51,2.22c-4.17,0-6.17,1.08-6,3.24l2.22,27.07.22.05,12.44-21.9c1.57-2.72,2.35-4.63,2.35-5.73,0-1.95-1.73-2.86-5.2-2.73l.51-2.22h13.98l-.57,2.22c-1.74.46-3.07,1.24-4,2.32-.93,1.08-2.46,3.38-4.57,6.91Z"/>
        <path d="M1538.33,366.08c-.13,1.1-.19,2.14-.19,3.11,0,7.62,3.49,11.43,10.48,11.43,5.08,0,9.93-3.07,14.55-9.21l1.33,1.75c-3.09,4.73-6.09,8.17-8.99,10.3-2.9,2.13-6.45,3.2-10.64,3.2-4.49,0-7.95-1.26-10.39-3.78-2.44-2.52-3.65-6.09-3.65-10.71,0-7.88,2.78-15.05,8.35-21.5,5.57-6.46,11.7-9.69,18.39-9.69,2.63,0,4.7.67,6.23,2,1.52,1.34,2.29,3.13,2.29,5.37,0,3.77-2.48,7.33-7.43,10.7-4.96,3.37-11.73,5.71-20.33,7.02ZM1538.9,363.72c13-2.41,19.5-6.75,19.5-13.02,0-1.27-.56-2.43-1.68-3.49-1.12-1.06-2.38-1.59-3.78-1.59-3.18,0-6.16,1.87-8.96,5.62-2.8,3.75-4.49,7.91-5.08,12.48Z"/>
        <path d="M1589.33,341.62l-3.51,16.39.25.25c4.16-11.52,8.76-17.28,13.81-17.28,1.91,0,3.65,1.21,5.22,3.63l-4.48,7.94c-2.5-2.58-4.2-3.87-5.09-3.87-1.57,0-3.61,2.56-6.14,7.68-2.52,5.12-4.25,9.8-5.18,14.03l-1.4,6.61c-.17.72-.25,1.4-.25,2.04,0,2.63,1.67,3.95,5.01,3.95h1.84l-.38,2.22h-21.03l.38-2.22c2.54,0,4.21-.46,5.02-1.37.8-.91,1.61-3.27,2.41-7.08l4.32-19.89c.34-1.61.51-2.94.51-4.01,0-2.62-1.04-3.94-3.11-3.94-.47,0-1.91.17-4.32.51l.51-2.6,13.01-2.99h2.6Z"/>
        <path d="M1632.54,341.24l-7.05,33.28c-.47,2.33-.7,3.98-.7,4.96,0,1.36.4,2.28,1.21,2.76.8.49,2.8.73,5.98.73l-.38,2.22h-22.87l.51-2.22c3.13,0,5.12-.29,5.97-.86.85-.57,1.63-2.49,2.35-5.75l5.08-23.57c.25-1.28.38-2.29.38-3.02,0-2.18-1.21-3.27-3.62-3.27l-5.08.63.51-2.6,15.1-3.3h2.61ZM1628.61,323c1.14,0,2.12.4,2.92,1.21.8.8,1.21,1.8,1.21,2.99s-.4,2.14-1.21,2.99c-.81.85-1.78,1.27-2.92,1.27s-2.2-.42-3.05-1.27c-.85-.84-1.27-1.84-1.27-2.99s.42-2.18,1.27-2.99c.85-.8,1.86-1.21,3.05-1.21Z"/>
        <path d="M1661.02,341.11l-1.66,7.56.26.25c2.83-2.75,5.3-4.76,7.39-6.04,2.09-1.27,4.51-1.91,7.26-1.91,3.64,0,6.58,1.06,8.84,3.18,2.26,2.11,3.39,5.08,3.39,8.89,0,1.48-.17,3.05-.51,4.7l-4.19,20.01c-.21.93-.32,1.7-.32,2.29,0,1.14.44,1.92,1.31,2.32.87.4,2.58.6,5.14.6l-.38,2.22h-21.22l.38-2.22c2.8-.17,4.66-.66,5.59-1.46.93-.8,1.67-2.56,2.22-5.27l4.45-20.71c.17-.76.25-1.5.25-2.22,0-2.12-.68-3.83-2.03-5.14-1.36-1.31-3.11-1.97-5.28-1.97-3.9,0-8.37,2.65-13.4,7.94l-4.4,21.15c-.42,1.95-.64,3.35-.64,4.19,0,1.36.45,2.28,1.34,2.76.89.49,2.49.73,4.78.73l-.38,2.22h-18.87l.38-2.22c2.88-.29,4.74-2.46,5.59-6.48l5.08-23.82c.13-.76.19-1.44.19-2.04,0-2.62-1.06-3.94-3.18-3.94-1.36,0-3.01.25-4.96.76l.64-2.86,14.31-3.5h2.61Z"/>
        <path d="M1739.89,340.98l-13.49,67.52c-1.61,8.31-8.32,12.46-20.12,12.46-5.63,0-10.07-1.28-13.33-3.84-3.26-2.56-4.89-5.84-4.89-9.81,0-7.54,6.78-14.53,20.33-20.97-6.52-2.46-9.78-7.35-9.78-14.68,0-8.17,3.69-15.33,11.07-21.47,7.38-6.14,17.45-9.22,30.22-9.22ZM1718.56,410.29l6.01-28.46-.29-.26c-2.63,2.29-6.64,4.35-12.04,6.19-5.4,1.84-9.6,4.32-12.61,7.43-3.01,3.11-4.51,6.28-4.51,9.5,0,3.55,1.4,6.66,4.19,9.3,2.8,2.65,6.04,3.97,9.72,3.97,2.75,0,4.86-.52,6.32-1.55,1.46-1.04,2.53-3.08,3.21-6.13ZM1725.51,377.41l6.58-31.15c-1.27-.04-2.2-.06-2.8-.06-6.52,0-11.9,2.03-16.14,6.09-4.57,4.36-6.86,10.04-6.86,17.06,0,4.02.91,7.17,2.73,9.45,1.82,2.28,4.3,3.43,7.43,3.43,2.2,0,4.22-.7,6.07-2.09,1.84-1.4,2.83-2.29,2.98-2.71Z"/>
        <path d="M1832.15,365.2l-3.92,18.54c-6.91,2.03-13.2,3.04-18.87,3.04-8.94,0-16.14-2.8-21.61-8.39-5.47-5.59-8.2-12.96-8.2-22.11,0-12.62,4.32-23.25,12.96-31.89,8.64-8.64,18.32-12.96,29.03-12.96,2.37,0,5.06.22,8.07.64,3.01.42,4.62.63,4.83.63,1.48,0,2.69-1.04,3.62-3.11h2.22l-2.99,14.17h-2.22c.42-2.75-.87-5.02-3.88-6.79-3.01-1.78-6.52-2.67-10.55-2.67-8.43,0-15.79,3.74-22.08,11.21-6.29,7.48-9.43,17.4-9.43,29.76,0,8.98,1.96,16,5.88,21.06,3.92,5.06,9.12,7.59,15.6,7.59,2.92,0,5.93-.74,9.02-2.22l3.88-18.36c.17-.8.25-1.54.25-2.22,0-2.75-1.86-4.13-5.59-4.13h-2.1l.38-2.22h24.39l-.38,2.22c-4.41-.04-7.18,2.7-8.33,8.21Z"/>
        <path d="M1864.48,341.62l-3.51,16.39.25.25c4.16-11.52,8.76-17.28,13.81-17.28,1.91,0,3.65,1.21,5.22,3.63l-4.48,7.94c-2.5-2.58-4.2-3.87-5.09-3.87-1.57,0-3.61,2.56-6.14,7.68-2.52,5.12-4.25,9.8-5.18,14.03l-1.4,6.61c-.17.72-.25,1.4-.25,2.04,0,2.63,1.67,3.95,5.01,3.95h1.84l-.38,2.22h-21.03l.38-2.22c2.54,0,4.21-.46,5.02-1.37.8-.91,1.61-3.27,2.41-7.08l4.32-19.89c.34-1.61.51-2.94.51-4.01,0-2.62-1.04-3.94-3.11-3.94-.47,0-1.91.17-4.32.51l.51-2.6,13.01-2.99h2.6Z"/>
        <path d="M1910.29,340.98c3.47,0,6.52,1.46,9.15,4.39,2.63,2.92,3.94,6.35,3.94,10.29,0,6.9-2.6,13.8-7.81,20.68-5.21,6.89-11.39,10.32-18.55,10.32-3.98,0-7.23-1.42-9.75-4.26-2.52-2.83-3.78-6.45-3.78-10.86,0-7.71,2.78-14.73,8.35-21.06,5.57-6.33,11.72-9.5,18.46-9.5ZM1899.87,382.85c4.19,0,7.89-2.61,11.09-7.83,3.2-5.22,4.8-11.44,4.8-18.68,0-3.26-.85-6-2.54-8.21-1.69-2.22-3.81-3.33-6.35-3.33-4.07,0-7.71,2.6-10.93,7.8-3.22,5.2-4.83,11.31-4.83,18.33,0,3.64.79,6.53,2.38,8.69,1.59,2.16,3.72,3.23,6.38,3.23Z"/>
        <path d="M1984.68,353.84l-19.39,32.57h-1.96l-2.73-30.37h-.25l-20.03,30.37h-2.2l-1.27-34.73c-.09-2.76-.47-4.6-1.14-5.51-.68-.92-2.27-1.44-4.76-1.56l.57-2.22h18.23l-.51,2.22c-2.29.12-3.79.72-4.49,1.78-.7,1.06-.99,3.29-.86,6.68l.74,21.86.23.04,15.63-23.35c-.13-2.87-.57-4.75-1.33-5.66-.76-.9-2.44-1.36-5.02-1.36l.51-2.22h19.18l-.51,2.22c-4.17,0-6.17,1.08-6,3.24l2.22,27.07.22.05,12.44-21.9c1.57-2.72,2.35-4.63,2.35-5.73,0-1.95-1.73-2.86-5.2-2.73l.51-2.22h13.98l-.57,2.22c-1.74.46-3.07,1.24-4,2.32-.93,1.08-2.46,3.38-4.57,6.91Z"/>
        <path d="M2023.18,342.38l-.64,3.55h-11.95l-6.31,29.72c-.17.81-.25,1.51-.25,2.1,0,2.46,1.08,3.69,3.24,3.69,3.52,0,8.04-2.31,13.55-6.92l1.59,1.62c-7.79,7.01-14.57,10.51-20.33,10.51-3.98,0-5.97-1.82-5.97-5.46,0-1.53.47-4.53,1.4-9.02l5.65-26.24h-7.81l.38-2.22c6.85-.67,12.1-4.89,15.73-12.64h2.29l-2.4,11.31h11.83Z"/>
        <path d="M2054.11,307.76l-8.47,40.59.27.32c5.04-5.13,10.05-7.69,15.04-7.69,3.42,0,6.24,1.17,8.46,3.5,2.22,2.32,3.33,5.39,3.33,9.2,0,1.36-.15,2.79-.44,4.32l-3.89,19.13c-.21,1.06-.32,1.9-.32,2.54,0,1.91,1.54,3.01,4.64,3.3l-.51,2.22h-18.36l.51-2.22c2.33-.25,3.91-.96,4.73-2.09.83-1.14,1.6-3.35,2.32-6.61l3.62-16.9c.25-1.31.38-2.52.38-3.62,0-5.04-2.6-7.56-7.81-7.56-3.98,0-8.27,2.5-12.87,7.5l-4.91,24.07c-.17.76-.25,1.4-.25,1.91,0,2.2,1.71,3.3,5.13,3.3l-.51,2.22h-17.66l.51-2.22c1.69,0,2.9-.62,3.62-1.88.72-1.24,1.42-3.53,2.1-6.83l11.18-54.38c.42-1.95.63-3.26.63-3.94,0-1.23-.48-2.03-1.43-2.41-.95-.38-2.64-.57-5.05-.57l.38-1.91,13.01-3.3h2.6Z"/>
      </g>
      <g>
        <g>
          <path class="cls-2" d="M27.04,152.11v-6.1l-1.83-1.51-5.53,2.14c-1-4.07-.97-7.45,2.1-10.47,1.67-1.64,2.81-3.8,3.88-5.99l4.96-3.57,2.34.41c2.08,2.93,3.2,5.6,5.2,7.09,3,2.23,6.72,1.87,10.13.45,1.76-.73,3.72-1.47,5.01-2.78,5.83-5.87,13.6-9.5,18.56-16.31.66-.91,1.16-1.94,1.54-3,1.24-3.5,2.23-7.1,3.28-10.56l6.09-1.86c.86-9.95,4.27-18.67,12.89-24.94-.47-1.55,2.82,4.23,3.53,8.1.41,2.22,1.3,3.92,3.68,5.39l4.43-.3,3.35,3.42c2.93-3.54,2.94-4.28.27-8.34.6-.95,1.24-1.97,1.95-3.1-.57-.4-.93-.87-1.3-.88-2.38-.07-4.77-.03-6.82-.03-3.1-4.68-6.08-9.17-9.3-14.01l-6.96,2.88c-3.56-1.55-5.83-5.04-7.13-8.74-1.29-3.68-1.38-7.77-1.98-11.59,1.31-3.71,2.57-7.29,3.83-10.88.13.04.25.08.38.11v-6.32l-4.87-1.6-1.03-3.26c-2.52-3.09-5.83-1.51-9.51-2.01l-3.96-5.38c1.94-3.02,3.54-5.51,5.45-8.48.78-.3,2.38-.62,3.64-1.45,3.38-2.25,6.52-4.88,9.95-7.04,1.54-.97,3.57-1.66,5.36-1.62,3.86.1,7.71.76,11.8,1.22v5.57c1.06-.58,1.75-.84,2.29-1.28.44-.36.69-.93,1.22-1.68.63.97,1.04,1.6,1.47,2.26,3.86-.32,5.96,2.29,8.07,4.72l-.45,7.14,13.63,2.43,1.8,5.31c2.83.99,4.64-1.53,7.42-2.31,4.64,1.99,8.26-.35,10.88-3.86l10.68-2.41,6.42,6.97c-.65,1.6-1.35,3.33-2.22,5.49h3.02c1.08,1.93.49,3.35-1.38,4.31-.84.43-1.81.62-2.72.94-7.04,2.5-8.99,5.17-9.37,13.18l-7.02.58c.43,3.18,3.61,3.29,5.01,5.55l-2.63,4.63c2.45,1.34,4.71,2.56,7.19,3.92l-1.98,4.07,1.73,4.4-4.43,5.08c-3.64-1.89-6.81-3.53-9.98-5.18-.18.26-.35.53-.53.79,1.26,1.35,2.51,2.71,3.89,4.19l-.3,2.61c3.5,2.45,5.23,7.36,10.52,6.66l1.54,3.8,14.51,5.8c.49,6.79-5.38,8.56-8.11,12.48.29,4.63,4.11,7.18,6.16,11.1,5.07,1.46,9.89,3.9,14.31,7.14,2.91,2.13,6.38,1.83,9.75,2.06,3.27.23,6.52.79,9.78,2.08l5.57-2.48c1.01,1.68,1.97,3.26,3.21,5.3,4.18-1.16,7.95.32,11.47,2.77.54.38,1.16.61,1.82.67,8.89.79,17.7,3.35,26.72,1.36,1.86-.41,3.64-1.15,6.23-1.99,2.54,1.79,5.6,3.94,8.48,5.97,1.16,4.16-1.71,7.02-2.58,11.03l11.44,1.12c.47,2.96,1.94,6.56.04,11.12-12.41-9.62-24.98-18.09-39.52-23.22-14.53-5.13-29.39-8.17-44.82-8.45-15.44-.28-30.44,2.06-45.09,6.85-14.65,4.79-27.67,12.65-40.52,22.09-.72-2.23-1.24-3.84-1.75-5.45-5.06-15.75-23.21-23.09-37.62-15.22-9.11,4.98-14.06,14.99-12.89,26.05,1.02,9.65,8.44,18.33,18.06,21.1,1.37.39,2.76.74,4.57,1.23-4.83,4.74-9.73,8.91-13.82,13.77-3.99,4.74-7.15,10.19-10.89,15.63l-4.03-1.48c-.91,1.93-1.87,3.87-2.77,5.85-2.6,5.73-7.17,8.04-13.29,6.45-2.48-.64-4.88-1.62-7.24-2.64-3.69-1.59-6.4-4.2-7.99-7.97-.99-2.35-1.9-4.89-4.96-5.29l-2.93-5.65c2.23-1.33,4.32-1.36,6.62-1.09,2.53.29,5.13.29,7.68.09,3.56-.27,5.97-2.1,6.72-6.15-4.98-4.2-11.07-1.73-16.99-2.6-.79-4.6-5.16-5.84-8.21-7.9-1.54-4.46-2.25-8.47.54-12.63,2.21.66,4.42,1.28,5.1,4.32l8.36-4.7c6.41.86,14.02,1.87,21.33,2.85,1.68-1,2.81-1.67,4.49-2.66.17-.42.28-.67-.04-.75-5.68-1.48-9.71-6.58-7.76-12.11.76-2.17-.98-3.62-1.59-5.43-1.56-4.64-1.55-4.64-4.74-7.45Z"/>
          <path class="cls-2" d="M256.66,110.33c4.8-.42,8.22,1.22,10.98,4.87-1.8,3.14-7.34,4.15-5.75,9.59,1.31.12,2.54.23,3.91.35.59.8,1.25,1.69,1.92,2.59.84.16,1.62.36,2.41.44,6.51.68,13.07-.11,19.63,1.18,3.44.68,7.38-.24,10.9-1.15,3.18-.82,5.92-1.14,8.59,1.06.42.35,1.2.28,1.89.41,1.06-2.22,2.06-4.33,3.23-6.78v-4.14c-1.07-.88-2.19-1.79-3.53-2.89.37-1.24.71-2.36,1.16-3.88,2.52.49,4.66.91,6.56,1.28,2.28-3.26,4.3-6.46,6.65-9.4,2.29-2.87,4.92-5.46,6.59-7.28,8.68-3.84,16.33-7.23,23.58-10.44,5.02,1.2,5.53,4.5,4.86,8.17,3.38,2.69,5.12-.32,7.59-1.91,1.53.77,3.17,1.59,4.76,2.4-1.11,5.33-7.82,4.33-9.15,9.4,1.14.97,2.31,1.97,3.6,3.06,2.26-.73,4.36-1.41,6.69-2.16.94,1.11,1.83,2.17,3.07,3.63-.69,1.96-1.41,3.98-2.18,6.17-2.02-.26-3.56-.45-5.4-.69-1.06,1.67-2.15,3.41-3.33,5.28-1.42-.07-2.84-.13-4.04-.19-4.76,1.46-4.02,5.93-5.17,8.93-2.3,1.07-4.26,1.98-6.13,2.85-.2,4.25,2.38,8.12-.71,11.43,1.13,1.91,2.02,3.42,2.98,5.03-1.03,2.77-2.08,5.59-3.29,8.86-1.36-.27-2.84-.56-5.08-.99-1.18.8-2.81,1.9-4.37,2.96.45,3.22.83,5.91,1.23,8.78-1.57,3.2-3.2,6.51-4.94,10.05-1.36.91-2.93,1.95-4.6,3.07,1.01,5.5,1.98,10.78,2.95,16.04-4.47.85-5.79-.26-8.3-6.97-7.09-3.6-8.08-10.54-7.9-18.06-6.02,3.44-8.61,7.67-8.51,14.09-1.73-1.42-3.17-2.61-4.62-3.8-.39-5.27-.77-10.33-1.09-14.63,2.29-2.86,3.97-4.97,6.04-7.56,1.05-.3,2.74-.77,4.76-1.35,1.05-1.46,2.25-3.13,3.64-5.06-.83-.46-1.45-1.07-2.12-1.13-5.43-.47-10.87-.85-16.31-1.2-1.11-.07-2.26.03-3.35.24-5.02,1-7.63.31-12.07-3.45-.25-2.43-.52-5.1-.81-7.94-6.4-1.16-12.58-2.28-18.7-3.39-2.11-2.06-4.47-4.01-6.39-6.32-3.75-4.52-4.04-10.2-4.7-15.71-.07-.55.37-1.23.71-1.75.43-.66,1-1.23,1.63-1.99Z"/>
        </g>
        <path d="M47.61,388.08h48.5v-205.24c-7.49,3.94-25.71,14.81-37.77,37.16-9.1,16.87-10.57,32.63-10.74,41.02v127.05Z"/>
        <path d="M105.29,171.08v185.81c34.75,30.47,82.82,39.69,124.52,23.65,53.27-20.5,69.94-72.18,71.91-78.67-17.39-.3-34.79-.6-52.18-.9-16.13,28.4-49.18,42.75-80.54,35.17-32.95-7.96-54.71-37.86-55.5-69.5-.92-36.79,26.7-69.54,62.26-74.81,27.14-4.02,55.03,8.54,71.91,32.34h54.05c-1.92-5.43-22.47-60.43-82.05-77.7-62.28-18.06-110.68,21.48-114.38,24.61Z"/>
        <circle class="cls-1" cx="76.5" cy="164.58" r="17.48"/>
      </g>
    </g>
  </g>
</svg>